<svg width="200" height="40" viewBox="0 0 200 40" fill="none" xmlns="http://www.w3.org/2000/svg">
  <!-- Heart person icon -->
  <path d="M20 8C14.48 8 10 12.48 10 18C10 23.52 14.48 28 20 28C25.52 28 30 23.52 30 18C30 12.48 25.52 8 20 8ZM20 13C21.66 13 23 14.34 23 16C23 17.66 21.66 19 20 19C18.34 19 17 17.66 17 16C17 14.34 18.34 13 20 13ZM20 26C17.33 26 15 24.67 15 22C15 20.67 16.67 20 20 20C23.33 20 25 20.67 25 22C25 24.67 22.67 26 20 26Z" fill="#0D344C"/>
  <path d="M20 4C12.95 4 7.21 8.34 5.22 14.28C7.12 10.18 11.24 7.5 16 7.5C23.17 7.5 29 13.33 29 20.5C29 24.31 27.19 27.72 24.35 29.88C31.72 28.56 37.5 22.84 37.5 16C37.5 9.1 32.9 4.5 26 4.5C23.91 4.5 21.93 5.01 20.17 5.91C19.45 4.73 18.28 4 17 4H20Z" fill="#0D344C"/>
  
  <!-- Trustee Hub text -->
  <text x="45" y="25" font-family="Arial, sans-serif" font-size="20" font-weight="bold" fill="#000000">Trustee Hub</text>
</svg> 